<svg width="24" height="24" viewBox="0 0 24 24" fill="none" xmlns="http://www.w3.org/2000/svg">
<path d="M21.7621 13.4662C21.6899 13.3941 21.5994 13.343 21.5003 13.3183C21.4012 13.2937 21.2972 13.2966 21.1996 13.3265C19.7371 13.7686 18.1821 13.8055 16.7002 13.4334C15.2183 13.0613 13.8652 12.2942 12.785 11.2137C11.7047 10.1331 10.9379 8.77979 10.5662 7.29782C10.1945 5.81586 10.2319 4.26081 10.6743 2.7984C10.7039 2.70088 10.7064 2.59716 10.6816 2.49833C10.6568 2.39949 10.6056 2.30925 10.5335 2.23724C10.4614 2.16523 10.3711 2.11417 10.2722 2.08949C10.1733 2.06482 10.0696 2.06747 9.97214 2.09715C8.03297 2.69208 6.33073 3.88323 5.10745 5.50121C3.72076 7.34255 3.04586 9.62282 3.207 11.9223C3.36813 14.2217 4.35445 16.3856 5.9844 18.0155C7.61434 19.6455 9.7782 20.6318 12.0776 20.7929C14.3771 20.954 16.6574 20.2792 18.4987 18.8925C20.1167 17.6692 21.3078 15.9669 21.9028 14.0278C21.9324 13.9302 21.935 13.8264 21.9102 13.7275C21.8855 13.6286 21.8343 13.5383 21.7621 13.4662ZM17.8246 17.9934C16.1998 19.212 14.1899 19.8037 12.164 19.6597C10.1381 19.5157 8.23208 18.6458 6.79592 17.2096C5.35977 15.7735 4.48984 13.8675 4.34586 11.8415C4.20189 9.8156 4.79352 7.80573 6.01214 6.1809C6.88012 5.03005 8.02585 4.11817 9.34214 3.53059C9.06502 5.05273 9.16115 6.61938 9.62229 8.09622C10.0834 9.57307 10.8958 10.9161 11.9898 12.0101C13.0839 13.1041 14.4268 13.9165 15.9037 14.3776C17.3805 14.8388 18.9472 14.9349 20.4693 14.6578C19.8833 15.9758 18.9724 17.1235 17.8218 17.9934H17.8246Z" fill="#FEFEFE"/>
</svg>
