<svg width="24" height="24" viewBox="0 0 24 24" fill="none" xmlns="http://www.w3.org/2000/svg">
<path d="M12 2.4375C10.1087 2.4375 8.25991 2.99833 6.68736 4.04907C5.11482 5.09981 3.88917 6.59327 3.16541 8.34059C2.44164 10.0879 2.25227 12.0106 2.62125 13.8656C2.99022 15.7205 3.90096 17.4244 5.2383 18.7617C6.57564 20.099 8.27951 21.0098 10.1345 21.3788C11.9894 21.7477 13.9121 21.5584 15.6594 20.8346C17.4067 20.1108 18.9002 18.8852 19.9509 17.3126C21.0017 15.7401 21.5625 13.8913 21.5625 12C21.5595 9.46478 20.5511 7.03425 18.7584 5.24158C16.9658 3.44891 14.5352 2.44048 12 2.4375ZM6.6975 18.5625C7.24762 17.6477 8.02503 16.8909 8.95417 16.3654C9.88331 15.84 10.9326 15.5638 12 15.5638C13.0674 15.5638 14.1167 15.84 15.0458 16.3654C15.975 16.8909 16.7524 17.6477 17.3025 18.5625C15.8028 19.7786 13.9308 20.4422 12 20.4422C10.0692 20.4422 8.19716 19.7786 6.6975 18.5625ZM8.8125 11.25C8.8125 10.6196 8.99945 10.0033 9.3497 9.47912C9.69994 8.95494 10.1978 8.54639 10.7802 8.30513C11.3626 8.06388 12.0035 8.00076 12.6219 8.12375C13.2402 8.24674 13.8081 8.55032 14.2539 8.9961C14.6997 9.44188 15.0033 10.0098 15.1263 10.6281C15.2492 11.2465 15.1861 11.8874 14.9449 12.4698C14.7036 13.0522 14.2951 13.5501 13.7709 13.9003C13.2467 14.2506 12.6304 14.4375 12 14.4375C11.1546 14.4375 10.3439 14.1017 9.7461 13.5039C9.14833 12.9061 8.8125 12.0954 8.8125 11.25ZM18.1416 17.7787C17.2578 16.4045 15.9367 15.3681 14.3916 14.8369C15.162 14.3237 15.7469 13.5762 16.0597 12.705C16.3726 11.8337 16.3967 10.8849 16.1287 9.99883C15.8606 9.11276 15.3145 8.33648 14.5712 7.78476C13.8278 7.23303 12.9267 6.93515 12.0009 6.93515C11.0752 6.93515 10.1741 7.23303 9.43072 7.78476C8.68737 8.33648 8.14129 9.11276 7.87322 9.99883C7.60514 10.8849 7.62931 11.8337 7.94214 12.705C8.25496 13.5762 8.83985 14.3237 9.61032 14.8369C8.06519 15.3681 6.74413 16.4045 5.86032 17.7787C4.73047 16.5798 3.97634 15.0762 3.69098 13.4537C3.40562 11.8311 3.60151 10.1605 4.25448 8.648C4.90745 7.13547 5.98893 5.84718 7.3655 4.94209C8.74206 4.037 10.3535 3.5547 12.0009 3.5547C13.6484 3.5547 15.2598 4.037 16.6364 4.94209C18.013 5.84718 19.0944 7.13547 19.7474 8.648C20.4004 10.1605 20.5963 11.8311 20.3109 13.4537C20.0255 15.0762 19.2714 16.5798 18.1416 17.7787Z" fill="#FEFEFE"/>
</svg>
