<svg width="24" height="24" viewBox="0 0 24 24" fill="none" xmlns="http://www.w3.org/2000/svg">
<path d="M12 7.68746C11.1471 7.68746 10.3133 7.94038 9.60409 8.41424C8.89491 8.88811 8.34216 9.56163 8.01576 10.3496C7.68936 11.1376 7.60395 12.0047 7.77035 12.8413C7.93675 13.6778 8.34748 14.4462 8.95059 15.0494C9.55371 15.6525 10.3221 16.0632 11.1587 16.2296C11.9952 16.396 12.8623 16.3106 13.6503 15.9842C14.4383 15.6578 15.1118 15.105 15.5857 14.3959C16.0596 13.6867 16.3125 12.8529 16.3125 12C16.311 10.8567 15.8562 9.76063 15.0477 8.9522C14.2393 8.14377 13.1433 7.68894 12 7.68746ZM12 15.1875C11.3696 15.1875 10.7533 15.0005 10.2291 14.6503C9.70493 14.3 9.29638 13.8022 9.05512 13.2198C8.81387 12.6373 8.75075 11.9964 8.87374 11.3781C8.99673 10.7598 9.30031 10.1918 9.74609 9.74605C10.1919 9.30027 10.7598 8.99669 11.3781 8.8737C11.9965 8.75071 12.6374 8.81384 13.2198 9.05509C13.8022 9.29634 14.3001 9.70489 14.6503 10.2291C15.0005 10.7533 15.1875 11.3695 15.1875 12C15.1875 12.8453 14.8517 13.6561 14.2539 14.2539C13.6561 14.8516 12.8454 15.1875 12 15.1875ZM22.125 10.0875C22.1087 10.0091 22.0758 9.93506 22.0286 9.87039C21.9814 9.80573 21.9209 9.75188 21.8512 9.71246L18.9975 8.08308L18.9581 8.01652L18.9469 4.79996C18.9469 4.71871 18.9293 4.63842 18.8953 4.56463C18.8613 4.49083 18.8117 4.42527 18.75 4.37246C17.7533 3.52971 16.6058 2.88361 15.3684 2.46839C15.294 2.44338 15.2152 2.43421 15.1371 2.44148C15.0589 2.44875 14.9832 2.47228 14.9147 2.51058L12.0431 4.11183H11.9494L9.0853 2.50871C9.01648 2.4703 8.94036 2.44678 8.86187 2.43967C8.78338 2.43256 8.70427 2.44203 8.62968 2.46746C7.39238 2.88388 6.24548 3.53162 5.24999 4.37621C5.18802 4.42874 5.13817 4.49407 5.10386 4.5677C5.06955 4.64134 5.0516 4.72153 5.05124 4.80277L5.03624 8.02214C5.02311 8.04371 5.00999 8.06621 4.9978 8.08871L2.1478 9.70964C2.07776 9.74967 2.01715 9.80429 1.97008 9.8698C1.92301 9.93531 1.89058 10.0102 1.87499 10.0893C1.62468 11.3514 1.62468 12.6504 1.87499 13.9125C1.8913 13.9908 1.92416 14.0648 1.97137 14.1295C2.01858 14.1942 2.07905 14.248 2.14874 14.2875L5.00061 15.9121L5.03999 15.9787L5.05124 19.1953C5.05078 19.2775 5.06834 19.3587 5.10268 19.4334C5.13702 19.5081 5.1873 19.5743 5.24999 19.6275C6.24668 20.4702 7.39413 21.1163 8.63155 21.5315C8.70594 21.5565 8.78474 21.5657 8.86289 21.5584C8.94104 21.5512 9.0168 21.5276 9.0853 21.4893L11.955 19.8881H12.0487L14.9137 21.4912C14.9976 21.5375 15.0917 21.562 15.1875 21.5625C15.2491 21.5627 15.3102 21.5526 15.3684 21.5325C16.6041 21.1155 17.7493 20.4678 18.7434 19.6237C18.8054 19.5712 18.8552 19.5058 18.8896 19.4322C18.9239 19.3586 18.9418 19.2784 18.9422 19.1971L18.9572 15.9778C18.9703 15.9562 18.9834 15.9337 18.9956 15.9112L21.8475 14.2903C21.9177 14.2503 21.9785 14.1958 22.0257 14.1303C22.073 14.0647 22.1055 13.9898 22.1212 13.9106C22.3728 12.6487 22.3741 11.3498 22.125 10.0875ZM21.0703 13.4428L18.3112 15.0093C18.2218 15.0605 18.1479 15.135 18.0975 15.225C18.0422 15.3187 17.9841 15.4228 17.9231 15.5193C17.8676 15.6082 17.8381 15.7108 17.8378 15.8156L17.8228 18.929C17.0471 19.5505 16.1758 20.0422 15.2428 20.385L12.4687 18.8325C12.3849 18.7853 12.2903 18.7604 12.1941 18.7603H12.1809C12.0647 18.7603 11.9466 18.7603 11.8303 18.7603C11.7297 18.7579 11.6303 18.7825 11.5425 18.8315L8.76093 20.384C7.82676 20.043 6.95416 19.5525 6.17718 18.9318L6.16593 15.8221C6.16563 15.7174 6.13609 15.6148 6.08061 15.5259C6.02061 15.4321 5.96155 15.3309 5.90624 15.2315C5.85636 15.1415 5.78275 15.067 5.69343 15.0159L2.93436 13.4437C2.77398 12.4882 2.77398 11.5126 2.93436 10.5571L5.68874 8.99058C5.77958 8.93993 5.85481 8.86536 5.90624 8.77496C5.96155 8.68121 6.01968 8.57714 6.08061 8.48058C6.13609 8.3917 6.16563 8.2891 6.16593 8.18433L6.18093 5.07089C6.9555 4.44977 7.8255 3.9581 8.75718 3.61496L11.5312 5.16746C11.6187 5.21736 11.7184 5.24203 11.8191 5.23871C11.9353 5.23871 12.0534 5.23871 12.1697 5.23871C12.2703 5.24112 12.3697 5.21652 12.4575 5.16746L15.2372 3.61496C16.1713 3.95599 17.0439 4.44644 17.8209 5.06714L17.8322 8.17683C17.8325 8.2816 17.862 8.3842 17.9175 8.47308C17.9775 8.56683 18.0366 8.66808 18.0919 8.76746C18.1417 8.85744 18.2154 8.93202 18.3047 8.98308L21.0656 10.5562C21.2269 11.5116 21.2279 12.4871 21.0684 13.4428H21.0703Z" fill="#FEFEFE"/>
</svg>
