<svg width="24" height="24" viewBox="0 0 24 24" fill="none" xmlns="http://www.w3.org/2000/svg">
<path d="M23.0139 11.2817C22.982 11.2116 22.202 9.55398 20.4601 7.88469C18.8439 6.33758 16.067 4.49219 12.0001 4.49219C7.93323 4.49219 5.15636 6.33758 3.54011 7.88469C1.79823 9.55398 1.01823 11.2089 0.986357 11.2817C0.954306 11.3507 0.937744 11.4254 0.937744 11.5009C0.937744 11.5764 0.954306 11.6511 0.986357 11.7201C1.01823 11.7893 1.79823 13.4469 3.54011 15.1162C5.15636 16.6633 7.93323 18.5078 12.0001 18.5078C16.067 18.5078 18.8439 16.6633 20.4601 15.1162C22.202 13.4469 22.982 11.792 23.0139 11.7201C23.0459 11.6511 23.0625 11.5764 23.0625 11.5009C23.0625 11.4254 23.0459 11.3507 23.0139 11.2817ZM12.0001 17.4297C9.05823 17.4297 6.48948 16.4037 4.36417 14.3813C3.47324 13.5328 2.71933 12.5616 2.12729 11.5C2.71916 10.4385 3.47309 9.46768 4.36417 8.61961C6.48948 6.59633 9.05823 5.57031 12.0001 5.57031C14.942 5.57031 17.5107 6.59633 19.636 8.61961C20.5271 9.46768 21.2811 10.4385 21.8729 11.5C21.2757 12.597 18.2814 17.4297 12.0001 17.4297ZM12.0001 7.36719C11.1472 7.36719 10.3134 7.60957 9.60421 8.06369C8.89502 8.51781 8.34228 9.16327 8.01588 9.91844C7.68947 10.6736 7.60407 11.5046 7.77047 12.3063C7.93687 13.108 8.3476 13.8444 8.95071 14.4223C9.55382 15.0003 10.3222 15.3939 11.1588 15.5534C11.9953 15.7129 12.8624 15.631 13.6504 15.3182C14.4384 15.0054 15.112 14.4757 15.5858 13.7961C16.0597 13.1164 16.3126 12.3174 16.3126 11.5C16.3111 10.4043 15.8563 9.35398 15.0479 8.57924C14.2394 7.80449 13.1434 7.36861 12.0001 7.36719ZM12.0001 14.5547C11.3697 14.5547 10.7534 14.3755 10.2292 14.0399C9.70505 13.7042 9.2965 13.2271 9.05524 12.669C8.81399 12.1108 8.75086 11.4966 8.87385 10.9041C8.99684 10.3115 9.30042 9.76722 9.7462 9.34001C10.192 8.9128 10.7599 8.62187 11.3783 8.50401C11.9966 8.38614 12.6375 8.44663 13.2199 8.67784C13.8023 8.90904 14.3002 9.30057 14.6504 9.80291C15.0007 10.3052 15.1876 10.8958 15.1876 11.5C15.1876 12.3102 14.8518 13.0871 14.254 13.66C13.6562 14.2329 12.8455 14.5547 12.0001 14.5547Z" fill="#222223"/>
</svg>
