<svg width="24" height="24" viewBox="0 0 24 24" fill="none" xmlns="http://www.w3.org/2000/svg">
<path d="M4.91636 3.37496C4.81338 3.27937 4.67836 3.22579 4.53787 3.22475C4.39737 3.2237 4.26157 3.27528 4.15719 3.36932C4.0528 3.46336 3.98739 3.59306 3.97382 3.7329C3.96025 3.87274 3.9995 4.0126 4.08386 4.12496L6.04136 6.28121C2.54636 8.33433 1.05104 11.625 0.986357 11.7721C0.954306 11.8441 0.937744 11.9221 0.937744 12.0009C0.937744 12.0797 0.954306 12.1576 0.986357 12.2296C1.01823 12.3018 1.79823 14.0315 3.54011 15.7734C5.15636 17.3878 7.93323 19.3125 12.0001 19.3125C13.7 19.3228 15.3818 18.9629 16.9285 18.2578L19.0848 20.6287C19.1852 20.7391 19.3254 20.8051 19.4745 20.8121C19.6236 20.8191 19.7694 20.7667 19.8798 20.6662C19.9902 20.5658 20.0562 20.4256 20.0632 20.2765C20.0702 20.1274 20.0177 19.9816 19.9173 19.8712L4.91636 3.37496ZM9.47448 10.0612L13.6932 14.7037C13.0598 15.0995 12.3076 15.2603 11.5677 15.158C10.8279 15.0558 10.1474 14.697 9.64514 14.1442C9.14285 13.5915 8.85061 12.8799 8.81941 12.1337C8.78822 11.3874 9.02007 10.6539 9.47448 10.0612ZM12.0001 18.1875C9.05823 18.1875 6.48948 17.1168 4.36417 15.0065C3.47303 14.1213 2.71909 13.1079 2.12729 12C2.52948 11.2312 4.01167 8.70183 6.8148 7.13339L8.70854 9.21558C8.03431 10.0145 7.67325 11.0312 7.69254 12.0765C7.71183 13.1217 8.11016 14.1244 8.81342 14.8979C9.51668 15.6714 10.477 16.1632 11.5157 16.2816C12.5544 16.4001 13.6007 16.1372 14.4601 15.5418L16.1298 17.3793C14.8208 17.921 13.4167 18.1957 12.0001 18.1875ZM12.6001 8.86871C12.4535 8.84073 12.3241 8.75568 12.2402 8.63226C12.1563 8.50884 12.1249 8.35715 12.1529 8.21058C12.1809 8.06401 12.2659 7.93455 12.3894 7.85069C12.5128 7.76682 12.6645 7.73542 12.811 7.76339C13.727 7.94134 14.5609 8.4105 15.1886 9.10097C15.8162 9.79143 16.2039 10.6662 16.2939 11.595C16.3007 11.6685 16.293 11.7427 16.2711 11.8133C16.2493 11.8839 16.2138 11.9495 16.1666 12.0063C16.1194 12.0632 16.0615 12.1101 15.9961 12.1446C15.9308 12.1791 15.8593 12.2003 15.7857 12.2071H15.7332C15.5926 12.2077 15.4568 12.1556 15.3527 12.061C15.2485 11.9664 15.1836 11.8363 15.1707 11.6962C15.1039 11.0109 14.8176 10.3655 14.3544 9.85609C13.8912 9.34664 13.2759 9.00033 12.6001 8.86871ZM23.0139 12.2296C22.9754 12.3159 22.0417 14.3859 19.9332 16.2721C19.8785 16.3234 19.8142 16.3632 19.7439 16.3892C19.6736 16.4153 19.5988 16.427 19.5239 16.4237C19.449 16.4204 19.3755 16.4022 19.3078 16.3701C19.24 16.338 19.1794 16.2927 19.1294 16.2368C19.0794 16.181 19.0411 16.1157 19.0167 16.0448C18.9923 15.9739 18.9823 15.8989 18.9873 15.8241C18.9924 15.7493 19.0123 15.6763 19.0459 15.6093C19.0795 15.5423 19.1262 15.4827 19.1832 15.434C20.2731 14.4548 21.1834 13.2927 21.8729 12C21.281 10.8921 20.5271 9.87873 19.636 8.99339C17.5107 6.88308 14.942 5.81246 12.0001 5.81246C11.3817 5.81172 10.7643 5.86189 10.1542 5.96246C10.0807 5.9763 10.0052 5.97537 9.93211 5.95971C9.85901 5.94404 9.78977 5.91396 9.72843 5.87123C9.66708 5.82849 9.61488 5.77396 9.57486 5.71081C9.53484 5.64766 9.5078 5.57717 9.49534 5.50346C9.48288 5.42974 9.48524 5.35428 9.50228 5.28149C9.51931 5.2087 9.55069 5.14003 9.59458 5.07951C9.63846 5.01898 9.69397 4.96781 9.75786 4.92899C9.82175 4.89016 9.89273 4.86446 9.96667 4.85339C10.6387 4.74183 11.3189 4.68633 12.0001 4.68746C16.067 4.68746 18.8439 6.61308 20.4601 8.22746C22.202 9.96933 22.982 11.6962 23.0139 11.7721C23.0459 11.8441 23.0625 11.9221 23.0625 12.0009C23.0625 12.0797 23.0459 12.1576 23.0139 12.2296Z" fill="#222223"/>
</svg>
